<svg xmlns="http://www.w3.org/2000/svg" xmlns:xlink="http://www.w3.org/1999/xlink" width="500" zoomAndPan="magnify" viewBox="0 0 375 374.999991" height="500" preserveAspectRatio="xMidYMid meet" version="1.0"><defs><clipPath id="id1"><path d="M 57.816406 256 L 316.832031 256 L 316.832031 324.285156 L 57.816406 324.285156 Z M 57.816406 256 " clip-rule="nonzero"/></clipPath><clipPath id="id2"><path d="M 57.816406 49.808594 L 316.832031 49.808594 L 316.832031 257 L 57.816406 257 Z M 57.816406 49.808594 " clip-rule="nonzero"/></clipPath><clipPath id="id3"><path d="M 89.21875 117.722656 L 286.378906 117.722656 L 286.378906 241 L 89.21875 241 Z M 89.21875 117.722656 " clip-rule="nonzero"/></clipPath></defs><g clip-path="url(#id1)"><path fill="#ff592a" d="M 187.394531 325.238281 L 317.746094 256.757812 L 57.042969 256.757812 Z M 187.394531 325.238281 " fill-opacity="1" fill-rule="nonzero"/></g><g clip-path="url(#id2)"><path fill="#ff592a" d="M 57.042969 6.300781 L 317.746094 6.300781 L 317.746094 256.757812 L 57.042969 256.757812 Z M 57.042969 6.300781 " fill-opacity="1" fill-rule="nonzero"/></g><path fill="#ffffff" d="M 197.070312 228.328125 C 162.429688 228.328125 128.515625 208.691406 111.605469 179.148438 C 128.597656 149.5625 162.472656 130 197.070312 130 C 231.707031 130 265.621094 149.636719 282.53125 179.1875 C 265.539062 208.765625 231.664062 228.328125 197.070312 228.328125 " fill-opacity="1" fill-rule="nonzero"/><path fill="#3a3035" d="M 169.597656 188.058594 C 169.597656 188.484375 169.515625 188.894531 169.351562 189.289062 C 169.1875 189.683594 168.953125 190.03125 168.648438 190.335938 C 168.347656 190.636719 167.996094 190.871094 167.601562 191.03125 C 167.207031 191.195312 166.792969 191.277344 166.367188 191.277344 C 165.9375 191.277344 165.523438 191.195312 165.128906 191.03125 C 164.734375 190.871094 164.382812 190.636719 164.082031 190.335938 C 163.777344 190.03125 163.542969 189.683594 163.378906 189.289062 C 163.21875 188.894531 163.136719 188.484375 163.136719 188.058594 C 163.136719 187.628906 163.21875 187.21875 163.378906 186.824219 C 163.542969 186.429688 163.777344 186.082031 164.082031 185.78125 C 164.382812 185.476562 164.734375 185.246094 165.128906 185.082031 C 165.523438 184.917969 165.9375 184.835938 166.367188 184.835938 C 166.792969 184.835938 167.207031 184.917969 167.601562 185.082031 C 167.996094 185.246094 168.347656 185.476562 168.648438 185.78125 C 168.953125 186.082031 169.1875 186.429688 169.351562 186.824219 C 169.515625 187.21875 169.597656 187.628906 169.597656 188.058594 Z M 169.597656 188.058594 " fill-opacity="1" fill-rule="nonzero"/><g clip-path="url(#id3)"><path fill="#3a3035" d="M 286.160156 177.792969 C 286.101562 177.535156 286.136719 177.257812 286.035156 177.003906 C 286 176.90625 285.910156 176.847656 285.875 176.746094 C 285.8125 176.597656 285.824219 176.429688 285.738281 176.292969 C 267.84375 142.144531 228.890625 117.679688 187.796875 117.679688 C 146.707031 117.679688 107.75 142.105469 89.851562 176.246094 C 89.773438 176.390625 89.789062 176.554688 89.722656 176.703125 C 89.6875 176.800781 89.59375 176.859375 89.558594 176.957031 C 89.457031 177.207031 89.496094 177.492188 89.441406 177.75 C 89.328125 178.207031 89.21875 178.664062 89.21875 179.125 C 89.21875 179.59375 89.328125 180.03125 89.441406 180.5 C 89.496094 180.765625 89.460938 181.027344 89.558594 181.28125 C 89.59375 181.386719 89.6875 181.449219 89.722656 181.546875 C 89.789062 181.695312 89.773438 181.859375 89.851562 182 C 107.75 216.144531 146.703125 240.613281 187.796875 240.613281 C 228.890625 240.613281 267.84375 216.1875 285.738281 182.050781 C 285.824219 181.902344 285.8125 181.738281 285.875 181.589844 C 285.910156 181.496094 286 181.433594 286.035156 181.328125 C 286.140625 181.078125 286.101562 180.800781 286.160156 180.535156 C 286.265625 180.082031 286.378906 179.636719 286.378906 179.167969 C 286.378906 178.699219 286.265625 178.253906 286.160156 177.792969 M 187.796875 228.3125 C 153.160156 228.3125 119.242188 208.671875 102.335938 179.132812 C 119.324219 149.546875 153.203125 129.980469 187.796875 129.980469 C 222.441406 129.980469 256.355469 149.617188 273.261719 179.167969 C 256.269531 208.746094 222.390625 228.3125 187.796875 228.3125 " fill-opacity="1" fill-rule="nonzero"/></g><path fill="#3a3035" d="M 187.796875 154.558594 C 187.785156 154.558594 187.773438 154.5625 187.761719 154.5625 C 174.160156 154.585938 163.136719 165.578125 163.136719 179.144531 C 163.136719 180.835938 164.519531 182.21875 166.222656 182.21875 C 167.917969 182.21875 169.300781 180.835938 169.300781 179.144531 C 169.300781 168.976562 177.601562 160.707031 187.796875 160.707031 L 187.796875 160.703125 C 189.492188 160.703125 190.878906 159.320312 190.878906 157.632812 C 190.875 155.933594 189.492188 154.558594 187.796875 154.558594 " fill-opacity="1" fill-rule="nonzero"/><path fill="#3a3035" d="M 187.652344 136.109375 C 163.796875 136.109375 144.464844 155.386719 144.464844 179.167969 C 144.464844 202.949219 163.796875 222.226562 187.652344 222.226562 C 211.507812 222.226562 230.84375 202.949219 230.84375 179.167969 C 230.84375 155.386719 211.507812 136.109375 187.652344 136.109375 M 187.652344 216.074219 C 167.234375 216.074219 150.632812 199.519531 150.632812 179.167969 C 150.632812 158.816406 167.238281 142.257812 187.652344 142.257812 C 208.070312 142.257812 224.675781 158.816406 224.675781 179.167969 C 224.671875 199.519531 208.070312 216.074219 187.652344 216.074219 " fill-opacity="1" fill-rule="nonzero"/><path fill="#3a3035" d="M 187.796875 154.558594 C 187.785156 154.558594 187.773438 154.5625 187.761719 154.5625 C 174.160156 154.585938 163.136719 165.578125 163.136719 179.144531 C 163.136719 180.835938 164.519531 182.21875 166.222656 182.21875 C 167.917969 182.21875 169.300781 180.835938 169.300781 179.144531 C 169.300781 168.976562 177.601562 160.707031 187.796875 160.707031 L 187.796875 160.703125 C 189.492188 160.703125 190.878906 159.320312 190.878906 157.632812 C 190.875 155.933594 189.492188 154.558594 187.796875 154.558594 " fill-opacity="1" fill-rule="nonzero"/><path fill="#3a3035" d="M 187.652344 136.109375 C 163.796875 136.109375 144.464844 155.386719 144.464844 179.167969 C 144.464844 202.949219 163.796875 222.226562 187.652344 222.226562 C 211.507812 222.226562 230.84375 202.949219 230.84375 179.167969 C 230.84375 155.386719 211.507812 136.109375 187.652344 136.109375 M 187.652344 216.074219 C 167.234375 216.074219 150.632812 199.519531 150.632812 179.167969 C 150.632812 158.816406 167.238281 142.257812 187.652344 142.257812 C 208.070312 142.257812 224.675781 158.816406 224.675781 179.167969 C 224.671875 199.519531 208.070312 216.074219 187.652344 216.074219 " fill-opacity="1" fill-rule="nonzero"/></svg>